<mxfile host="app.diagrams.net" modified="2023-04-04T07:39:32.608Z" agent="5.0 (Windows NT 10.0; Win64; x64) AppleWebKit/537.36 (KHTML, like Gecko) Chrome/111.0.0.0 Safari/537.36 Edg/111.0.1661.62" etag="5ojER-5Py5NAojBnZlh8" version="20.3.3" type="github">
  <diagram id="DATR6OLhmwdBYOL9gFpi" name="第 1 页">
    <mxGraphModel dx="467" dy="272" grid="1" gridSize="10" guides="1" tooltips="1" connect="1" arrows="1" fold="1" page="1" pageScale="1" pageWidth="827" pageHeight="1169" math="0" shadow="0">
      <root>
        <mxCell id="0" />
        <mxCell id="1" parent="0" />
        <mxCell id="SCz0CusGFoDrVMPN6XUr-1" value="ingress" style="rounded=0;whiteSpace=wrap;html=1;" vertex="1" parent="1">
          <mxGeometry x="350" y="400" width="140" height="30" as="geometry" />
        </mxCell>
        <mxCell id="SCz0CusGFoDrVMPN6XUr-4" value="web" style="rounded=0;whiteSpace=wrap;html=1;" vertex="1" parent="1">
          <mxGeometry x="150" y="460" width="110" height="30" as="geometry" />
        </mxCell>
        <mxCell id="SCz0CusGFoDrVMPN6XUr-5" value="api" style="rounded=0;whiteSpace=wrap;html=1;" vertex="1" parent="1">
          <mxGeometry x="350" y="460" width="110" height="30" as="geometry" />
        </mxCell>
        <mxCell id="SCz0CusGFoDrVMPN6XUr-8" value="cold-wallet" style="rounded=0;whiteSpace=wrap;html=1;" vertex="1" parent="1">
          <mxGeometry x="20" y="720" width="107" height="30" as="geometry" />
        </mxCell>
        <mxCell id="SCz0CusGFoDrVMPN6XUr-9" value="hot-wallet" style="rounded=0;whiteSpace=wrap;html=1;" vertex="1" parent="1">
          <mxGeometry x="120" y="780" width="107" height="30" as="geometry" />
        </mxCell>
        <mxCell id="SCz0CusGFoDrVMPN6XUr-16" style="edgeStyle=orthogonalEdgeStyle;rounded=0;orthogonalLoop=1;jettySize=auto;html=1;exitX=0;exitY=0.5;exitDx=0;exitDy=0;" edge="1" parent="1" source="SCz0CusGFoDrVMPN6XUr-10">
          <mxGeometry relative="1" as="geometry">
            <mxPoint x="520" y="475" as="targetPoint" />
          </mxGeometry>
        </mxCell>
        <mxCell id="SCz0CusGFoDrVMPN6XUr-10" value="auth" style="rounded=0;whiteSpace=wrap;html=1;" vertex="1" parent="1">
          <mxGeometry x="523" y="460" width="110" height="30" as="geometry" />
        </mxCell>
        <mxCell id="SCz0CusGFoDrVMPN6XUr-11" value="worker" style="rounded=0;whiteSpace=wrap;html=1;" vertex="1" parent="1">
          <mxGeometry x="350" y="580" width="110" height="30" as="geometry" />
        </mxCell>
        <mxCell id="SCz0CusGFoDrVMPN6XUr-12" value="aws service" style="rounded=0;whiteSpace=wrap;html=1;" vertex="1" parent="1">
          <mxGeometry x="523" y="570" width="110" height="30" as="geometry" />
        </mxCell>
        <mxCell id="SCz0CusGFoDrVMPN6XUr-14" value="mysql" style="shape=cylinder3;whiteSpace=wrap;html=1;boundedLbl=1;backgroundOutline=1;size=15;" vertex="1" parent="1">
          <mxGeometry x="680" y="510" width="60" height="80" as="geometry" />
        </mxCell>
        <mxCell id="SCz0CusGFoDrVMPN6XUr-24" value="" style="group" vertex="1" connectable="0" parent="1">
          <mxGeometry x="470" y="460" width="60" height="20" as="geometry" />
        </mxCell>
        <mxCell id="SCz0CusGFoDrVMPN6XUr-15" value="" style="endArrow=classic;startArrow=classic;html=1;rounded=0;exitX=1;exitY=0.5;exitDx=0;exitDy=0;" edge="1" parent="SCz0CusGFoDrVMPN6XUr-24" source="SCz0CusGFoDrVMPN6XUr-5">
          <mxGeometry width="50" height="50" relative="1" as="geometry">
            <mxPoint y="60" as="sourcePoint" />
            <mxPoint x="50" y="15" as="targetPoint" />
          </mxGeometry>
        </mxCell>
        <mxCell id="SCz0CusGFoDrVMPN6XUr-23" value="restful" style="text;strokeColor=none;fillColor=none;align=left;verticalAlign=middle;spacingLeft=4;spacingRight=4;overflow=hidden;points=[[0,0.5],[1,0.5]];portConstraint=eastwest;rotatable=0;" vertex="1" parent="SCz0CusGFoDrVMPN6XUr-24">
          <mxGeometry width="60" height="20" as="geometry" />
        </mxCell>
        <mxCell id="SCz0CusGFoDrVMPN6XUr-25" value="MQ" style="rounded=1;whiteSpace=wrap;html=1;" vertex="1" parent="1">
          <mxGeometry x="353" y="520" width="104" height="20" as="geometry" />
        </mxCell>
        <mxCell id="SCz0CusGFoDrVMPN6XUr-26" value="" style="endArrow=classic;html=1;rounded=0;exitX=0.5;exitY=1;exitDx=0;exitDy=0;entryX=0.5;entryY=0;entryDx=0;entryDy=0;" edge="1" parent="1" source="SCz0CusGFoDrVMPN6XUr-5" target="SCz0CusGFoDrVMPN6XUr-25">
          <mxGeometry width="50" height="50" relative="1" as="geometry">
            <mxPoint x="450" y="560" as="sourcePoint" />
            <mxPoint x="500" y="510" as="targetPoint" />
          </mxGeometry>
        </mxCell>
        <mxCell id="SCz0CusGFoDrVMPN6XUr-27" value="" style="endArrow=classic;html=1;rounded=0;exitX=0.5;exitY=1;exitDx=0;exitDy=0;entryX=0.5;entryY=0;entryDx=0;entryDy=0;" edge="1" parent="1" source="SCz0CusGFoDrVMPN6XUr-25" target="SCz0CusGFoDrVMPN6XUr-11">
          <mxGeometry width="50" height="50" relative="1" as="geometry">
            <mxPoint x="450" y="560" as="sourcePoint" />
            <mxPoint x="500" y="510" as="targetPoint" />
          </mxGeometry>
        </mxCell>
      </root>
    </mxGraphModel>
  </diagram>
</mxfile>
